<?xml version="1.0" encoding="utf-8"?>
<!-- Generator: Adobe Illustrator 28.2.0, SVG Export Plug-In . SVG Version: 6.00 Build 0)  -->
<svg version="1.1" id="Layer_1" xmlns="http://www.w3.org/2000/svg" xmlns:xlink="http://www.w3.org/1999/xlink" x="0px" y="0px"
	 viewBox="0 0 350 475" style="enable-background:new 0 0 350 475;" xml:space="preserve">
<style type="text/css">
	.st0{clip-path:url(#SVGID_00000000222278892956689580000007904520369193249947_);}
	.st1{clip-path:url(#SVGID_00000000918490169320342390000007888277511129460666_);}
	.st2{clip-path:url(#SVGID_00000179620346067737068480000007408154332414022311_);}
	.st3{clip-path:url(#SVGID_00000183935878380188241870000010492471308891453105_);}
	.st4{clip-path:url(#SVGID_00000051360435463673499580000013267464980245724326_);}
	.st5{clip-path:url(#SVGID_00000041991254640963839540000015136852032940464283_);}
	.st6{clip-path:url(#SVGID_00000110440425570439980360000002864767715416953734_);}
	.st7{clip-path:url(#SVGID_00000057129458614450180350000010318552154548306825_);}
	.st8{clip-path:url(#SVGID_00000183219879863054094860000002234010736608392844_);}
	.st9{clip-path:url(#SVGID_00000135679578902576341750000013316398982719690664_);}
	.st10{clip-path:url(#SVGID_00000005243583937193568430000016688865353052823978_);}
	.st11{clip-path:url(#SVGID_00000000927723306628962550000014748533021717242007_);}
	.st12{clip-path:url(#SVGID_00000086667593885704868970000014669188447587901596_);}
	.st13{clip-path:url(#SVGID_00000155851221341233930240000011616044258041106357_);}
	.st14{clip-path:url(#SVGID_00000158019676855277866200000012021605122485492389_);}
	.st15{clip-path:url(#SVGID_00000032640938261897105120000015303148567099989415_);}
	.st16{clip-path:url(#SVGID_00000121241246083486118040000003367260867194058627_);}
	.st17{clip-path:url(#SVGID_00000075863693774611587920000011651479906540701320_);}
</style>
<g>
	<g>
		<g>
			<g>
				<g>
					<g>
						<g>
							<path id="SVGID_00000011723051327377763210000010501387806990592904_" d="M136.3,66.7l-2.9,52.1l0.8-0.1
								c4.7-0.4,9.6-0.6,15-0.6h0.8c0,0,0.8,0,2.1,0c9.5,0,43.3,1.1,78.1,15.6l3.5,1.5l11-52v-0.1c-1.5-14.5-37.8-22.9-39.4-23.3
								c-15.3-2.9-28.4-4.4-39-4.4C137.6,55.5,136.3,66.2,136.3,66.7"/>
						</g>
						<g>
							<g>
								<defs>
									<path id="SVGID_1_" d="M136.3,66.7l-2.9,52.1l0.8-0.1c4.7-0.4,9.6-0.6,15-0.6h0.8c0,0,0.8,0,2.1,0
										c9.5,0,43.3,1.1,78.1,15.6l3.5,1.5l11-52v-0.1c-1.5-14.5-37.8-22.9-39.4-23.3c-15.3-2.9-28.4-4.4-39-4.4
										C137.6,55.5,136.3,66.2,136.3,66.7"/>
								</defs>
								<clipPath id="SVGID_00000104675732923410677250000011807792117943244468_">
									<use xlink:href="#SVGID_1_"  style="overflow:visible;"/>
								</clipPath>
								
									<rect x="133.3" y="55.5" style="clip-path:url(#SVGID_00000104675732923410677250000011807792117943244468_);" width="111.3" height="79.8"/>
							</g>
						</g>
					</g>
					<g>
						<g>
							<path id="SVGID_00000168100857861317050430000010314825514026602677_" d="M158.6,185.1c-0.3,0.9-0.6,2.4-1,3.9
								c-0.1,0.5-0.1,1.1,0.4,1.3c1.3,0.8,0.8,1.7,0.7,3.3c-0.2,2.5-0.5,10.6,0,14c1.1,6.7,7.8,10.3,12.7,11.2
								c13.1,2.6,19-5,24.1-12.8c1.8-2.9,3.9-6.7,6.6-6.1c3.5,0.8,2.4,4.9,2.6,8.1c0.7,11.9,3.2,18.2,13.3,20.2
								c7.6,1.5,12.7-0.4,16.8-8.2c1.4-2.6,2.7-5.3,3.9-8c0.7-1.5,1-3.1,2.2-2.8c0.2,0,0.5-0.1,0.7-0.7c0.5-1.6,0.7-2.4,1.1-3.9
								c0.2-0.8,0.1-0.9-0.4-1.1c-3.7-1.5-11.4-4.9-15.4-5.9c-6.2-1.4-11.2-1.1-15.4-0.8c-3.3,0.2-6.1,0.5-8.6-0.1
								c-5.4-1.2-12.2-7.6-22-9.9c-7.4-1.7-18.7-2.5-20.7-2.9c-0.2,0-0.3,0-0.5,0C159.1,184,158.8,184.3,158.6,185.1"/>
						</g>
						<g>
							<g>
								<defs>
									<path id="SVGID_00000106861750493960408060000001954982695123791263_" d="M158.6,185.1c-0.3,0.9-0.6,2.4-1,3.9
										c-0.1,0.5-0.1,1.1,0.4,1.3c1.3,0.8,0.8,1.7,0.7,3.3c-0.2,2.5-0.5,10.6,0,14c1.1,6.7,7.8,10.3,12.7,11.2
										c13.1,2.6,19-5,24.1-12.8c1.8-2.9,3.9-6.7,6.6-6.1c3.5,0.8,2.4,4.9,2.6,8.1c0.7,11.9,3.2,18.2,13.3,20.2
										c7.6,1.5,12.7-0.4,16.8-8.2c1.4-2.6,2.7-5.3,3.9-8c0.7-1.5,1-3.1,2.2-2.8c0.2,0,0.5-0.1,0.7-0.7c0.5-1.6,0.7-2.4,1.1-3.9
										c0.2-0.8,0.1-0.9-0.4-1.1c-3.7-1.5-11.4-4.9-15.4-5.9c-6.2-1.4-11.2-1.1-15.4-0.8c-3.3,0.2-6.1,0.5-8.6-0.1
										c-5.4-1.2-12.2-7.6-22-9.9c-7.4-1.7-18.7-2.5-20.7-2.9c-0.2,0-0.3,0-0.5,0C159.1,184,158.8,184.3,158.6,185.1"/>
								</defs>
								<clipPath id="SVGID_00000170246276008512844440000012619115602993385401_">
									<use xlink:href="#SVGID_00000106861750493960408060000001954982695123791263_"  style="overflow:visible;"/>
								</clipPath>
								
									<rect x="157.5" y="184" style="clip-path:url(#SVGID_00000170246276008512844440000012619115602993385401_);" width="85.5" height="45.9"/>
							</g>
						</g>
					</g>
					<g>
						<g>
							<polygon id="SVGID_00000172402086772224478450000013294930240667914167_" points="118.8,217.6 118,231.1 123.8,217.2 
								121.7,210.9 116.8,202.1 							"/>
						</g>
						<g>
							<g>
								<defs>
									<polygon id="SVGID_00000034078513570359174140000006974377313713667476_" points="118.8,217.6 118,231.1 123.8,217.2 
										121.7,210.9 116.8,202.1 									"/>
								</defs>
								<clipPath id="SVGID_00000057865162588573410800000009816476598914727076_">
									<use xlink:href="#SVGID_00000034078513570359174140000006974377313713667476_"  style="overflow:visible;"/>
								</clipPath>
								
									<rect x="116.8" y="202.1" style="clip-path:url(#SVGID_00000057865162588573410800000009816476598914727076_);" width="7" height="29"/>
							</g>
						</g>
					</g>
					<g>
						<g>
							<polygon id="SVGID_00000125575627755091741350000000709511085324665752_" points="119.1,174.1 116.6,181.1 119.4,177.8 
								117,183.2 118.4,191.3 118.9,183.2 123.1,176.7 128.5,182.6 128.2,178.9 123,173.5 							"/>
						</g>
						<g>
							<g>
								<defs>
									<polygon id="SVGID_00000113311004076081334460000007480692296238657719_" points="119.1,174.1 116.6,181.1 119.4,177.8 
										117,183.2 118.4,191.3 118.9,183.2 123.1,176.7 128.5,182.6 128.2,178.9 123,173.5 									"/>
								</defs>
								<clipPath id="SVGID_00000144298160970414839610000016519862356434347195_">
									<use xlink:href="#SVGID_00000113311004076081334460000007480692296238657719_"  style="overflow:visible;"/>
								</clipPath>
								
									<rect x="116.6" y="173.5" style="clip-path:url(#SVGID_00000144298160970414839610000016519862356434347195_);" width="11.9" height="17.8"/>
							</g>
						</g>
					</g>
					<g>
						<g>
							<polygon id="SVGID_00000069381942525246027650000007987486882219247246_" points="125.7,196.4 126.9,201.8 130.6,203.3 
								127.9,198.9 129.4,190.4 							"/>
						</g>
						<g>
							<g>
								<defs>
									<polygon id="SVGID_00000024692175963033392640000012540674325922872975_" points="125.7,196.4 126.9,201.8 130.6,203.3 
										127.9,198.9 129.4,190.4 									"/>
								</defs>
								<clipPath id="SVGID_00000179619452630478929340000006738677102907125157_">
									<use xlink:href="#SVGID_00000024692175963033392640000012540674325922872975_"  style="overflow:visible;"/>
								</clipPath>
								
									<rect x="125.7" y="190.4" style="clip-path:url(#SVGID_00000179619452630478929340000006738677102907125157_);" width="4.9" height="12.9"/>
							</g>
						</g>
					</g>
					<g>
						<g>
							<polygon id="SVGID_00000179611829775118233450000007721051359157731250_" points="119.7,199.5 124.5,204.9 118.9,195.8 
															"/>
						</g>
						<g>
							<g>
								<defs>
									<polygon id="SVGID_00000176727162767267098430000002670302055778374335_" points="119.7,199.5 124.5,204.9 118.9,195.8 
																			"/>
								</defs>
								<clipPath id="SVGID_00000156550938270929642370000000734634798327841167_">
									<use xlink:href="#SVGID_00000176727162767267098430000002670302055778374335_"  style="overflow:visible;"/>
								</clipPath>
								
									<rect x="118.9" y="195.8" style="clip-path:url(#SVGID_00000156550938270929642370000000734634798327841167_);" width="5.6" height="9.1"/>
							</g>
						</g>
					</g>
					<g>
						<g>
							<polygon id="SVGID_00000013158557895410815580000007660679815915473078_" points="123.2,187 119.9,192.9 123.6,197.7 
								124.5,191.4 128.2,185.7 							"/>
						</g>
						<g>
							<g>
								<defs>
									<polygon id="SVGID_00000032618360101314631280000016378360409240534449_" points="123.2,187 119.9,192.9 123.6,197.7 
										124.5,191.4 128.2,185.7 									"/>
								</defs>
								<clipPath id="SVGID_00000109023436522810661580000000980805195462162578_">
									<use xlink:href="#SVGID_00000032618360101314631280000016378360409240534449_"  style="overflow:visible;"/>
								</clipPath>
								
									<rect x="119.9" y="185.7" style="clip-path:url(#SVGID_00000109023436522810661580000000980805195462162578_);" width="8.3" height="12"/>
							</g>
						</g>
					</g>
					<g>
						<g>
							<polygon id="SVGID_00000036961582448085210870000001052274938832825775_" points="104.3,242 132.3,283.3 100.2,248.5 
								93.9,253.8 102.3,273 116.1,305.7 127.9,289.9 147.3,308.9 164.7,318.9 160,318.3 183.7,353.9 187.1,350 190.2,324.6 
								192.1,327.1 187.1,350 200.7,328.4 201,322.4 202.2,318.6 204.7,309.2 195.8,304.1 205.5,308.1 209.6,298.8 207.2,296.9 
								209.6,295.3 195.1,285.9 187.1,288.4 181.3,290.3 177.6,289 175.3,295.5 175.3,295.5 172.3,303.8 173.1,304.7 182.5,315.8 
								184.3,330 183.1,347 177.7,330.1 177.9,330.3 177.5,329.5 176.9,327.8 176.4,327.1 166.8,306.4 150.7,280.2 151,284.6 
								143.6,277.7 130.1,286.9 132.5,283.6 132.6,283.5 143.6,275.8 150.1,282.1 147,273.9 114,239.3 106.3,237.4 							"/>
						</g>
						<g>
							<g>
								<defs>
									<polygon id="SVGID_00000093179290664129284230000005310570897979895438_" points="104.3,242 132.3,283.3 100.2,248.5 
										93.9,253.8 102.3,273 116.1,305.7 127.9,289.9 147.3,308.9 164.7,318.9 160,318.3 183.7,353.9 187.1,350 190.2,324.6 
										192.1,327.1 187.1,350 200.7,328.4 201,322.4 202.2,318.6 204.7,309.2 195.8,304.1 205.5,308.1 209.6,298.8 207.2,296.9 
										209.6,295.3 195.1,285.9 187.1,288.4 181.3,290.3 177.6,289 175.3,295.5 175.3,295.5 172.3,303.8 173.1,304.7 182.5,315.8 
										184.3,330 183.1,347 177.7,330.1 177.9,330.3 177.5,329.5 176.9,327.8 176.4,327.1 166.8,306.4 150.7,280.2 151,284.6 
										143.6,277.7 130.1,286.9 132.5,283.6 132.6,283.5 143.6,275.8 150.1,282.1 147,273.9 114,239.3 106.3,237.4 									"/>
								</defs>
								<clipPath id="SVGID_00000111875311189242124100000012231670597267322759_">
									<use xlink:href="#SVGID_00000093179290664129284230000005310570897979895438_"  style="overflow:visible;"/>
								</clipPath>
								
									<rect x="93.9" y="237.4" style="clip-path:url(#SVGID_00000111875311189242124100000012231670597267322759_);" width="115.7" height="116.6"/>
							</g>
						</g>
					</g>
					<g>
						<g>
							<path id="SVGID_00000088840936148866078900000001495336690555223978_" d="M232.9,191.6l1.5-4.3
								C233.9,188.9,233.4,190.4,232.9,191.6L232.9,191.6z M150,120.4l-0.8,0c-22.6,0-51.1,3.7-59,21.5c-1.3,5.2-0.4,9.9,1.8,14
								c6.6,12.5,24.5,20,25.5,20.4l0.7,0.3l0.2-0.7c0.5-1.5,0.4-3.3,0.2-5.1l2-2.5l0.3-0.2l3.6-0.3l9.3,14.2l-3.4,40.3v18.3
								l9.7,16.4l22.1,22.3l19.3,9.5l11.2-3.5l15.4-18.9l12.4-32.3l-11.7,22.2l-1-7.6l-11.2-8.9l-1.6,7.9l8.4,7l-2.8,8.6l-5.6,7.3
								l-3.4,0.6l1.9-4.5l0.3-5.1l-14.4-2.9l0,4.5l-1.9,4.1l-5,1.9l-6.5-12.4l2.2-8.3l22.4-1.9l1.9-8l-23-0.3l-5.3,3.8l-4.1,7
								l-3.4,2.5l-0.6-14.3L141.3,221l-2.5-20l5.1-19.1l12.7,7.6l1.5-5.9l-12.5-6.3l4.9-1.7l5.7-2l5.1-1.8l-23.8-13.3l1.5-0.9
								l19.8,11.5l-6.8-8.2l0.4-1.4l-8.5-4.8l11.5-6.7l0.7-0.8c1,0,1.8,0,2.2,0h0c13.3,0.2,24.5,1.6,33.8,3.6l14.2,11.4l8.7-4
								c12.6,5.8,17.7,11.7,17.8,11.8c0,0,0,0,0,0l0.6,5l-2.5,12.9v6.5l0,0.4l0,0v1.6l-0.4,0.8l0.4-0.1v0.2l0.1-0.2l0.9-0.2
								c0.2,0,0.4-0.1,0.6-0.2l2.6,3.1l7.5,3.2l-5.8-6.8c24-5.9,28.1-16.4,28.5-17.7c0.2-0.3,0.3-0.6,0.5-0.9
								c0.1-0.2,0.2-0.4,0.4-0.6c0.2-0.3,0.3-0.7,0.4-1c0.1-0.2,0.2-0.4,0.3-0.6c0.1-0.3,0.2-0.7,0.3-1c0.1-0.2,0.2-0.4,0.2-0.6
								c0.1-0.3,0.1-0.7,0.2-1c0-0.2,0.1-0.4,0.1-0.7c0-0.3,0.1-0.6,0.1-0.9c0-0.3,0.1-0.5,0.1-0.8c0-0.3,0-0.5,0-0.8
								c0-0.3,0-0.6,0-0.9c0-0.2-0.1-0.5-0.1-0.7c0-0.3-0.1-0.7-0.1-1c-0.1-0.6-0.2-1.1-0.4-1.7c-4.2-14.5-27.3-25.1-28.2-25.6
								c-37.6-18.1-76.1-19.5-87-19.5C150.8,120.4,150,120.4,150,120.4"/>
						</g>
						<g>
							<g>
								<defs>
									<path id="SVGID_00000052080441402641027370000011139897912586451089_" d="M232.9,191.6l1.5-4.3
										C233.9,188.9,233.4,190.4,232.9,191.6L232.9,191.6z M150,120.4l-0.8,0c-22.6,0-51.1,3.7-59,21.5c-1.3,5.2-0.4,9.9,1.8,14
										c6.6,12.5,24.5,20,25.5,20.4l0.7,0.3l0.2-0.7c0.5-1.5,0.4-3.3,0.2-5.1l2-2.5l0.3-0.2l3.6-0.3l9.3,14.2l-3.4,40.3v18.3
										l9.7,16.4l22.1,22.3l19.3,9.5l11.2-3.5l15.4-18.9l12.4-32.3l-11.7,22.2l-1-7.6l-11.2-8.9l-1.6,7.9l8.4,7l-2.8,8.6l-5.6,7.3
										l-3.4,0.6l1.9-4.5l0.3-5.1l-14.4-2.9l0,4.5l-1.9,4.1l-5,1.9l-6.5-12.4l2.2-8.3l22.4-1.9l1.9-8l-23-0.3l-5.3,3.8l-4.1,7
										l-3.4,2.5l-0.6-14.3L141.3,221l-2.5-20l5.1-19.1l12.7,7.6l1.5-5.9l-12.5-6.3l4.9-1.7l5.7-2l5.1-1.8l-23.8-13.3l1.5-0.9
										l19.8,11.5l-6.8-8.2l0.4-1.4l-8.5-4.8l11.5-6.7l0.7-0.8c1,0,1.8,0,2.2,0h0c13.3,0.2,24.5,1.6,33.8,3.6l14.2,11.4l8.7-4
										c12.6,5.8,17.7,11.7,17.8,11.8c0,0,0,0,0,0l0.6,5l-2.5,12.9v6.5l0,0.4l0,0v1.6l-0.4,0.8l0.4-0.1v0.2l0.1-0.2l0.9-0.2
										c0.2,0,0.4-0.1,0.6-0.2l2.6,3.1l7.5,3.2l-5.8-6.8c24-5.9,28.1-16.4,28.5-17.7c0.2-0.3,0.3-0.6,0.5-0.9
										c0.1-0.2,0.2-0.4,0.4-0.6c0.2-0.3,0.3-0.7,0.4-1c0.1-0.2,0.2-0.4,0.3-0.6c0.1-0.3,0.2-0.7,0.3-1c0.1-0.2,0.2-0.4,0.2-0.6
										c0.1-0.3,0.1-0.7,0.2-1c0-0.2,0.1-0.4,0.1-0.7c0-0.3,0.1-0.6,0.1-0.9c0-0.3,0.1-0.5,0.1-0.8c0-0.3,0-0.5,0-0.8
										c0-0.3,0-0.6,0-0.9c0-0.2-0.1-0.5-0.1-0.7c0-0.3-0.1-0.7-0.1-1c-0.1-0.6-0.2-1.1-0.4-1.7c-4.2-14.5-27.3-25.1-28.2-25.6
										c-37.6-18.1-76.1-19.5-87-19.5C150.8,120.4,150,120.4,150,120.4"/>
								</defs>
								<clipPath id="SVGID_00000109009625109844846610000011125119679032593073_">
									<use xlink:href="#SVGID_00000052080441402641027370000011139897912586451089_"  style="overflow:visible;"/>
								</clipPath>
								
									<rect x="88.8" y="120.4" style="clip-path:url(#SVGID_00000109009625109844846610000011125119679032593073_);" width="179.2" height="168.3"/>
							</g>
						</g>
					</g>
				</g>
				<g>
					<g>
						<path id="SVGID_00000111912534041434532110000002768799416235714966_" d="M280.6,359.2c-1,0-1.2,1.3-1.2,1.3v2.1
							c0,0.4,0.2,0.6,0.6,0.8c0.5,0.2,2.5,2.2,2.5,2.2v42.3c0,0.4-0.2,1-0.2,1l-2.7,2.4v2.8c0,0.5,0.8,0.8,0.8,0.8H291
							c0.6,0,0.7-0.6,0.7-0.6v-3.2c0,0-1.7-1.5-2.4-1.9c-0.7-0.4-1-1.2-1-1.2V383l14.4,31.7h6.3v-49.3c0-1.5,2.8-2.3,2.8-2.3v-0.4
							v-2.4c0-0.8-0.7-1-0.7-1h-10.8c-0.6,0-0.8,0.7-0.8,0.7v2.3c0,0.6,0.6,0.6,0.6,0.6s1.5,1.1,2.2,1.4c0.7,0.3,0.9,1.5,0.9,1.5
							v20.5l-12.1-27L280.6,359.2L280.6,359.2z"/>
					</g>
					<g>
						<g>
							<defs>
								<path id="SVGID_00000052100749590170454620000014258697605790090134_" d="M280.6,359.2c-1,0-1.2,1.3-1.2,1.3v2.1
									c0,0.4,0.2,0.6,0.6,0.8c0.5,0.2,2.5,2.2,2.5,2.2v42.3c0,0.4-0.2,1-0.2,1l-2.7,2.4v2.8c0,0.5,0.8,0.8,0.8,0.8H291
									c0.6,0,0.7-0.6,0.7-0.6v-3.2c0,0-1.7-1.5-2.4-1.9c-0.7-0.4-1-1.2-1-1.2V383l14.4,31.7h6.3v-49.3c0-1.5,2.8-2.3,2.8-2.3v-0.4
									v-2.4c0-0.8-0.7-1-0.7-1h-10.8c-0.6,0-0.8,0.7-0.8,0.7v2.3c0,0.6,0.6,0.6,0.6,0.6s1.5,1.1,2.2,1.4c0.7,0.3,0.9,1.5,0.9,1.5
									v20.5l-12.1-27L280.6,359.2L280.6,359.2z"/>
							</defs>
							<clipPath id="SVGID_00000092453582040989683560000008769175438708803261_">
								<use xlink:href="#SVGID_00000052100749590170454620000014258697605790090134_"  style="overflow:visible;"/>
							</clipPath>
							
								<rect x="279.4" y="359.2" style="clip-path:url(#SVGID_00000092453582040989683560000008769175438708803261_);" width="32.3" height="55.7"/>
						</g>
					</g>
				</g>
				<g>
					<g>
						<path id="SVGID_00000147214179368307940140000000685188753776346025_" d="M252.8,372L257,399h-8.8L252.8,372z M247.1,359.1
							c-0.7,0-0.9,0.9-0.9,0.9v2.2c0,0.4,0.5,1.1,0.5,1.1l2,2.1c0,0-6.3,39.6-6.7,41.3c-0.4,1.7-1,3.1-2,3.6c-1,0.5-1.1,1.7-1.1,1.7
							v1.9c0,0.4,0.8,0.9,0.8,0.9h9.8c1,0,1-0.7,1-0.7v-1.5c0-0.5-0.2-1.2-0.2-1.2s-2-1.6-2.6-2c-0.6-0.4-0.4-1.5-0.4-1.5l0.9-5.2
							h9.3l1.1,6.1c0,0-1.5,1.4-2.4,1.8c-0.9,0.4-0.5,1.6-0.5,1.6v1.5c0,0.6,0.5,0.9,0.5,0.9h16.5c0.9,0,1.4-0.9,1.4-0.9v-2
							c0-0.7-0.2-1.1-0.2-1.1s-0.1-0.4-1.2-1.1c-1.1-0.7-1.3-2.4-1.3-2.4s-7-44.1-7.4-46c-0.4-2-2-2.2-2-2.2L247.1,359.1
							L247.1,359.1z"/>
					</g>
					<g>
						<g>
							<defs>
								<path id="SVGID_00000166649879694393972050000009350039259568156050_" d="M252.8,372L257,399h-8.8L252.8,372z M247.1,359.1
									c-0.7,0-0.9,0.9-0.9,0.9v2.2c0,0.4,0.5,1.1,0.5,1.1l2,2.1c0,0-6.3,39.6-6.7,41.3c-0.4,1.7-1,3.1-2,3.6
									c-1,0.5-1.1,1.7-1.1,1.7v1.9c0,0.4,0.8,0.9,0.8,0.9h9.8c1,0,1-0.7,1-0.7v-1.5c0-0.5-0.2-1.2-0.2-1.2s-2-1.6-2.6-2
									c-0.6-0.4-0.4-1.5-0.4-1.5l0.9-5.2h9.3l1.1,6.1c0,0-1.5,1.4-2.4,1.8c-0.9,0.4-0.5,1.6-0.5,1.6v1.5c0,0.6,0.5,0.9,0.5,0.9
									h16.5c0.9,0,1.4-0.9,1.4-0.9v-2c0-0.7-0.2-1.1-0.2-1.1s-0.1-0.4-1.2-1.1c-1.1-0.7-1.3-2.4-1.3-2.4s-7-44.1-7.4-46
									c-0.4-2-2-2.2-2-2.2L247.1,359.1L247.1,359.1z"/>
							</defs>
							<clipPath id="SVGID_00000059297923118994271570000017814430023123550394_">
								<use xlink:href="#SVGID_00000166649879694393972050000009350039259568156050_"  style="overflow:visible;"/>
							</clipPath>
							
								<rect x="239" y="359.1" style="clip-path:url(#SVGID_00000059297923118994271570000017814430023123550394_);" width="34.9" height="55.7"/>
						</g>
					</g>
				</g>
				<g>
					<g>
						<path id="SVGID_00000183219684209493386920000013803391985344458685_" d="M193.7,359.1c-1.2,0-1.1,1.1-1.1,1.1v3.4
							c0,0,0.5,0.4,1.4,1c0.9,0.5,1.1,1.7,1.1,1.7v42.3c-0.1,0.4-0.7,1.2-1.5,2c-0.8,0.7-0.9,1.5-0.9,1.5v1.7c0,0.9,1.2,1.1,1.2,1.1
							h8.5c0.7,0,1-1,1-1v-2.3c0-0.9-0.8-0.9-1.5-1.5c-0.7-0.6-1.3-1.5-1.3-1.5v-29l6.7,23h3.5l7.1-23.5V408c0,0-1.1,1.4-2,1.7
							c-0.9,0.3-1,1.2-1,1.2v2.6c0,1,0.9,1.2,0.9,1.2h16.8c0.7,0,1-0.9,1-0.9v-3c0,0-0.7-0.8-1.6-1.3c-0.9-0.5-1.2-1.2-1.2-1.2
							v-42.3c0-1,2.2-2.4,2.4-2.6c0.2-0.2,0.7-0.9,0.7-0.9v-2.5c0-0.9-1.2-1-1.2-1h-13.9l-6,21.8l-5.9-21.9L193.7,359.1L193.7,359.1
							z"/>
					</g>
					<g>
						<g>
							<defs>
								<path id="SVGID_00000160905005840096794670000000824785656364678578_" d="M193.7,359.1c-1.2,0-1.1,1.1-1.1,1.1v3.4
									c0,0,0.5,0.4,1.4,1c0.9,0.5,1.1,1.7,1.1,1.7v42.3c-0.1,0.4-0.7,1.2-1.5,2c-0.8,0.7-0.9,1.5-0.9,1.5v1.7
									c0,0.9,1.2,1.1,1.2,1.1h8.5c0.7,0,1-1,1-1v-2.3c0-0.9-0.8-0.9-1.5-1.5c-0.7-0.6-1.3-1.5-1.3-1.5v-29l6.7,23h3.5l7.1-23.5
									V408c0,0-1.1,1.4-2,1.7c-0.9,0.3-1,1.2-1,1.2v2.6c0,1,0.9,1.2,0.9,1.2h16.8c0.7,0,1-0.9,1-0.9v-3c0,0-0.7-0.8-1.6-1.3
									c-0.9-0.5-1.2-1.2-1.2-1.2v-42.3c0-1,2.2-2.4,2.4-2.6c0.2-0.2,0.7-0.9,0.7-0.9v-2.5c0-0.9-1.2-1-1.2-1h-13.9l-6,21.8
									l-5.9-21.9L193.7,359.1L193.7,359.1z"/>
							</defs>
							<clipPath id="SVGID_00000013166724396291759790000002807689007505321351_">
								<use xlink:href="#SVGID_00000160905005840096794670000000824785656364678578_"  style="overflow:visible;"/>
							</clipPath>
							
								<rect x="192.5" y="359.1" style="clip-path:url(#SVGID_00000013166724396291759790000002807689007505321351_);" width="41.7" height="55.7"/>
						</g>
					</g>
				</g>
				<g>
					<g>
						<path id="SVGID_00000146482571210511610460000007472832689574469788_" d="M168.7,359.1c0,0-1,0.5-1,1.5v1.9c0,0,0,0.9,0.4,1.2
							c0.4,0.3,1.5,1.2,1.5,1.2v18.1h-6.3v-18.1c0,0,1.1-0.9,1.5-1.2c0.4-0.3,0.4-1.2,0.4-1.2v-1.9c0-0.9-0.9-1.5-0.9-1.5h-16.7
							c0,0-0.7,0.3-0.7,1v2.8c0,0,2.8,1.5,2.8,3v42.3c0,0-0.1,0.9-1.1,1.7c-0.9,0.8-1.7,1.3-1.7,1.3v3.4c0,0,0.4,0.2,1.2,0.2H165
							c0,0,0.8-0.3,0.8-1.2V411c0,0-2.1-1.5-2.2-2v-22.2h6v22.2c-0.1,0.5-2.2,2-2.2,2v2.5c0,0.9,0.8,1.2,0.8,1.2H185
							c0.7,0,1.2-0.2,1.2-0.2v-3.4c0,0-0.8-0.5-1.7-1.3c-1-0.8-1.1-1.7-1.1-1.7v-42.3c0-1.4,2.8-3,2.8-3v-2.8c0-0.7-0.7-1-0.7-1
							H168.7z"/>
					</g>
					<g>
						<g>
							<defs>
								<path id="SVGID_00000182511728735505954790000007276337340340500868_" d="M168.7,359.1c0,0-1,0.5-1,1.5v1.9
									c0,0,0,0.9,0.4,1.2c0.4,0.3,1.5,1.2,1.5,1.2v18.1h-6.3v-18.1c0,0,1.1-0.9,1.5-1.2c0.4-0.3,0.4-1.2,0.4-1.2v-1.9
									c0-0.9-0.9-1.5-0.9-1.5h-16.7c0,0-0.7,0.3-0.7,1v2.8c0,0,2.8,1.5,2.8,3v42.3c0,0-0.1,0.9-1.1,1.7c-0.9,0.8-1.7,1.3-1.7,1.3
									v3.4c0,0,0.4,0.2,1.2,0.2H165c0,0,0.8-0.3,0.8-1.2V411c0,0-2.1-1.5-2.2-2v-22.2h6v22.2c-0.1,0.5-2.2,2-2.2,2v2.5
									c0,0.9,0.8,1.2,0.8,1.2H185c0.7,0,1.2-0.2,1.2-0.2v-3.4c0,0-0.8-0.5-1.7-1.3c-1-0.8-1.1-1.7-1.1-1.7v-42.3
									c0-1.4,2.8-3,2.8-3v-2.8c0-0.7-0.7-1-0.7-1H168.7z"/>
							</defs>
							<clipPath id="SVGID_00000072995604247036890320000001389721919904780434_">
								<use xlink:href="#SVGID_00000182511728735505954790000007276337340340500868_"  style="overflow:visible;"/>
							</clipPath>
							
								<rect x="147" y="359.1" style="clip-path:url(#SVGID_00000072995604247036890320000001389721919904780434_);" width="39.1" height="55.6"/>
						</g>
					</g>
				</g>
				<g>
					<g>
						<path id="SVGID_00000103978735600324016100000016968349883622451378_" d="M88.6,359.1c0,0-1.2,0.3-1.2,1v2.8
							c0,0,3.3,1.5,3.3,3v42.3c0,0-0.1,0.9-1.1,1.7c-1,0.8-2.5,1.3-2.5,1.3v3.4c0,0,0.7,0.2,1.4,0.2h17.8c0,0,0.8-0.3,0.8-1.2V411
							c0,0-2.6-1.5-2.7-2l-0.1-44.3c0,0,2.3-1.1,2.7-1.4c0.4-0.3,0.4-0.9,0.4-0.9v-1.9c0-0.9-1-1.5-1-1.5H88.6z"/>
					</g>
					<g>
						<g>
							<defs>
								<path id="SVGID_00000182497347244519157590000006855181969039216788_" d="M88.6,359.1c0,0-1.2,0.3-1.2,1v2.8
									c0,0,3.3,1.5,3.3,3v42.3c0,0-0.1,0.9-1.1,1.7c-1,0.8-2.5,1.3-2.5,1.3v3.4c0,0,0.7,0.2,1.4,0.2h17.8c0,0,0.8-0.3,0.8-1.2V411
									c0,0-2.6-1.5-2.7-2l-0.1-44.3c0,0,2.3-1.1,2.7-1.4c0.4-0.3,0.4-0.9,0.4-0.9v-1.9c0-0.9-1-1.5-1-1.5H88.6z"/>
							</defs>
							<clipPath id="SVGID_00000183235157162518664080000000195772074106134413_">
								<use xlink:href="#SVGID_00000182497347244519157590000006855181969039216788_"  style="overflow:visible;"/>
							</clipPath>
							
								<rect x="87.1" y="359.1" style="clip-path:url(#SVGID_00000183235157162518664080000000195772074106134413_);" width="20.3" height="55.6"/>
						</g>
					</g>
				</g>
				<g>
					<g>
						<path id="SVGID_00000062162309557710606060000017178191415960728193_" d="M135.9,359.3c0,0-0.4,1-1.1,1c-0.3,0-1-0.5-1.9-1.1
							c-0.9-0.6-2.2-1.1-3.7-1.1c-3,0.1-15.3,2.4-15.3,27.5c0,1.2-0.3,29.8,16.1,29.8c1.8,0,9.7-1,11.2-11v-1.3c0,0,0.2-1.8-1.5-1.8
							h-2.7c0,0-1.4,0.2-1.8,2.8c-0.4,2.6-0.8,6.9-3.2,6.9c-2.4,0-2.8-1.6-2.8-3.1v-42.6c0,0,0.6-2.6,2.2-2.6c1.7,0,3,1.3,3.8,4.9
							c0.8,3.6,1.2,7.2,3.6,7.2s2.3-2,2.3-2l-0.8-13.3c0,0-0.2-1.6-1.8-1.6C137.1,357.9,135.9,359.3,135.9,359.3"/>
					</g>
					<g>
						<g>
							<defs>
								<path id="SVGID_00000041269117921236093640000009998021082207188627_" d="M135.9,359.3c0,0-0.4,1-1.1,1
									c-0.3,0-1-0.5-1.9-1.1c-0.9-0.6-2.2-1.1-3.7-1.1c-3,0.1-15.3,2.4-15.3,27.5c0,1.2-0.3,29.8,16.1,29.8c1.8,0,9.7-1,11.2-11
									v-1.3c0,0,0.2-1.8-1.5-1.8h-2.7c0,0-1.4,0.2-1.8,2.8c-0.4,2.6-0.8,6.9-3.2,6.9c-2.4,0-2.8-1.6-2.8-3.1v-42.6
									c0,0,0.6-2.6,2.2-2.6c1.7,0,3,1.3,3.8,4.9c0.8,3.6,1.2,7.2,3.6,7.2s2.3-2,2.3-2l-0.8-13.3c0,0-0.2-1.6-1.8-1.6
									C137.1,357.9,135.9,359.3,135.9,359.3"/>
							</defs>
							<clipPath id="SVGID_00000174578055857148345630000016944771689372250275_">
								<use xlink:href="#SVGID_00000041269117921236093640000009998021082207188627_"  style="overflow:visible;"/>
							</clipPath>
							
								<rect x="113.7" y="357.9" style="clip-path:url(#SVGID_00000174578055857148345630000016944771689372250275_);" width="27.8" height="57.5"/>
						</g>
					</g>
				</g>
				<g>
					<g>
						<path id="SVGID_00000177463090631147976750000012046414813305334192_" d="M59.9,362.9h1.8c3.8,0,4.4,4.3,4.4,4.3v13.4
							c0,4.6-3.1,5.8-3.1,5.8h-3.2C59.9,386.3,59.9,362.9,59.9,362.9z M44.8,359.2c-1.7,0-1.8,1.3-1.8,1.3s-0.1,1.1,0,1.9
							c0.1,0.8,0.9,1.4,1.8,1.7c0.9,0.3,1.4,1.7,1.4,1.7s0.1,41,0,41.9c0,0.9-1.4,1.9-2.1,2.3c-0.8,0.4-0.7,1.2-0.7,1.2v1.9
							c0,0.8,1,1.6,1,1.6h15.9c1.1,0,1.8-1,1.8-1v-2.5c0,0-0.2-0.8-1-1.3c-0.8-0.5-1.3-1.4-1.3-1.4v-18.4h2.7c3.2,0,3.6,3.6,3.6,3.6
							v15.7c0,4.1,3.5,5.3,3.5,5.3h10.3c0.7,0,1.6-0.8,1.6-0.8s0-2.4,0-2.7c-0.1-0.4-0.4-0.6-1.2-1.2c-0.7-0.6-0.7-1.2-0.7-1.2V399
							c0-8.7-10.3-10.8-10.3-10.8c11.9-3,11.3-12.4,11.2-13.7c-0.7-14.3-13.4-15.3-13.4-15.3L44.8,359.2L44.8,359.2z"/>
					</g>
					<g>
						<g>
							<defs>
								<path id="SVGID_00000013166996411260991610000017943077311343280802_" d="M59.9,362.9h1.8c3.8,0,4.4,4.3,4.4,4.3v13.4
									c0,4.6-3.1,5.8-3.1,5.8h-3.2C59.9,386.3,59.9,362.9,59.9,362.9z M44.8,359.2c-1.7,0-1.8,1.3-1.8,1.3s-0.1,1.1,0,1.9
									c0.1,0.8,0.9,1.4,1.8,1.7c0.9,0.3,1.4,1.7,1.4,1.7s0.1,41,0,41.9c0,0.9-1.4,1.9-2.1,2.3c-0.8,0.4-0.7,1.2-0.7,1.2v1.9
									c0,0.8,1,1.6,1,1.6h15.9c1.1,0,1.8-1,1.8-1v-2.5c0,0-0.2-0.8-1-1.3c-0.8-0.5-1.3-1.4-1.3-1.4v-18.4h2.7
									c3.2,0,3.6,3.6,3.6,3.6v15.7c0,4.1,3.5,5.3,3.5,5.3h10.3c0.7,0,1.6-0.8,1.6-0.8s0-2.4,0-2.7c-0.1-0.4-0.4-0.6-1.2-1.2
									c-0.7-0.6-0.7-1.2-0.7-1.2V399c0-8.7-10.3-10.8-10.3-10.8c11.9-3,11.3-12.4,11.2-13.7c-0.7-14.3-13.4-15.3-13.4-15.3
									L44.8,359.2L44.8,359.2z"/>
							</defs>
							<clipPath id="SVGID_00000023282539822705120240000011526284907614681766_">
								<use xlink:href="#SVGID_00000013166996411260991610000017943077311343280802_"  style="overflow:visible;"/>
							</clipPath>
							
								<rect x="42.9" y="359.2" style="clip-path:url(#SVGID_00000023282539822705120240000011526284907614681766_);" width="38.6" height="55.7"/>
						</g>
					</g>
				</g>
				<g>
					<g>
						<path id="SVGID_00000041280278453691012570000012133040206021803154_" d="M318.6,355.4c-1.2-1.2-2-2.8-2-4.6s0.8-3.4,2-4.6h0
							c1.2-1.2,2.9-1.9,4.8-1.9c1.9,0,3.6,0.7,4.8,1.9l0,0c1.2,1.2,2,2.8,2,4.6s-0.8,3.4-2,4.6c-1.2,1.2-2.9,1.9-4.8,1.9
							C321.5,357.3,319.8,356.6,318.6,355.4 M317.5,345.1L317.5,345.1c-1.5,1.5-2.4,3.5-2.4,5.7s0.9,4.2,2.4,5.7
							c1.5,1.5,3.6,2.3,5.9,2.3s4.4-0.9,5.9-2.3c1.5-1.4,2.4-3.4,2.4-5.7s-0.9-4.2-2.4-5.7v0h0c-1.5-1.4-3.6-2.3-5.9-2.3
							C321.1,342.8,319,343.7,317.5,345.1"/>
					</g>
					<g>
						<g>
							<defs>
								<path id="SVGID_00000049201483766313658730000014851573619710634115_" d="M318.6,355.4c-1.2-1.2-2-2.8-2-4.6s0.8-3.4,2-4.6
									h0c1.2-1.2,2.9-1.9,4.8-1.9c1.9,0,3.6,0.7,4.8,1.9l0,0c1.2,1.2,2,2.8,2,4.6s-0.8,3.4-2,4.6c-1.2,1.2-2.9,1.9-4.8,1.9
									C321.5,357.3,319.8,356.6,318.6,355.4 M317.5,345.1L317.5,345.1c-1.5,1.5-2.4,3.5-2.4,5.7s0.9,4.2,2.4,5.7
									c1.5,1.5,3.6,2.3,5.9,2.3s4.4-0.9,5.9-2.3c1.5-1.4,2.4-3.4,2.4-5.7s-0.9-4.2-2.4-5.7v0h0c-1.5-1.4-3.6-2.3-5.9-2.3
									C321.1,342.8,319,343.7,317.5,345.1"/>
							</defs>
							<clipPath id="SVGID_00000056395217850636713270000016361286451922879624_">
								<use xlink:href="#SVGID_00000049201483766313658730000014851573619710634115_"  style="overflow:visible;"/>
							</clipPath>
							
								<rect x="315.1" y="342.8" style="clip-path:url(#SVGID_00000056395217850636713270000016361286451922879624_);" width="16.6" height="16"/>
						</g>
					</g>
				</g>
				<g>
					<g>
						<path id="SVGID_00000116945187495477369560000000885576300140929439_" d="M321.1,347.9h1.4c0.7,0,1.2,0,1.3,0
							c0.3,0,0.5,0.2,0.7,0.3c0.2,0.2,0.3,0.4,0.3,0.7c0,0.3-0.1,0.5-0.2,0.6c-0.1,0.2-0.3,0.3-0.5,0.4c-0.2,0.1-0.8,0.1-1.6,0.1
							h-1.3V347.9z M319.3,346.4v8.6h1.8v-3.6h0.4c0.4,0,0.7,0,0.9,0.1c0.2,0.1,0.4,0.2,0.6,0.4c0.2,0.2,0.5,0.6,1,1.3l1.3,1.9h2.2
							l-1.1-1.7c-0.4-0.7-0.8-1.1-1-1.4c-0.3-0.3-0.6-0.5-1-0.7c0.8-0.1,1.4-0.4,1.8-0.8c0.4-0.4,0.6-1,0.6-1.6c0-0.5-0.1-1-0.4-1.4
							c-0.3-0.4-0.6-0.7-1-0.8c-0.4-0.2-1.1-0.2-2.1-0.2L319.3,346.4L319.3,346.4z"/>
					</g>
					<g>
						<g>
							<defs>
								<path id="SVGID_00000163755350040465212840000009207109940388786101_" d="M321.1,347.9h1.4c0.7,0,1.2,0,1.3,0
									c0.3,0,0.5,0.2,0.7,0.3c0.2,0.2,0.3,0.4,0.3,0.7c0,0.3-0.1,0.5-0.2,0.6c-0.1,0.2-0.3,0.3-0.5,0.4c-0.2,0.1-0.8,0.1-1.6,0.1
									h-1.3V347.9z M319.3,346.4v8.6h1.8v-3.6h0.4c0.4,0,0.7,0,0.9,0.1c0.2,0.1,0.4,0.2,0.6,0.4c0.2,0.2,0.5,0.6,1,1.3l1.3,1.9
									h2.2l-1.1-1.7c-0.4-0.7-0.8-1.1-1-1.4c-0.3-0.3-0.6-0.5-1-0.7c0.8-0.1,1.4-0.4,1.8-0.8c0.4-0.4,0.6-1,0.6-1.6
									c0-0.5-0.1-1-0.4-1.4c-0.3-0.4-0.6-0.7-1-0.8c-0.4-0.2-1.1-0.2-2.1-0.2L319.3,346.4L319.3,346.4z"/>
							</defs>
							<clipPath id="SVGID_00000033336451964470382220000007679114322521395366_">
								<use xlink:href="#SVGID_00000163755350040465212840000009207109940388786101_"  style="overflow:visible;"/>
							</clipPath>
							
								<rect x="319.3" y="346.4" style="clip-path:url(#SVGID_00000033336451964470382220000007679114322521395366_);" width="8.1" height="8.6"/>
						</g>
					</g>
				</g>
			</g>
		</g>
	</g>
</g>
</svg>
